<svg xmlns="http://www.w3.org/2000/svg" width="176" height="104" viewBox="0 0 176 104" fill="none"><path d="M13.1738 43.72C16.1338 43.88 19.1738 43.56 22.1338 43.56C23.8938 43.64 25.5738 43.72 27.2538 43.96C28.2138 44.12 29.1738 44.44 29.9738 45C30.2138 45.16 30.4538 45.32 30.6138 45.48C32.2938 47.64 33.5738 49.88 33.5738 52.76C33.4938 54.68 33.0938 56.52 32.1338 58.2C30.8538 60.52 29.7338 62.84 28.1338 65C26.5338 67.16 24.6938 69.08 22.5338 70.68C20.7738 71.88 19.0938 73.16 17.0938 74.04C14.2938 75.32 11.5738 75.16 8.93375 73.8C7.97375 73.24 7.09375 72.68 6.21375 72.04C4.85375 71.08 3.97375 69.72 3.09375 68.28C3.01375 68.04 2.85375 67.88 3.01375 67.64C3.25375 67.4 3.49375 67.56 3.65375 67.56C4.05375 67.72 4.37375 67.96 4.61375 68.28C4.85375 68.6 5.09375 68.92 5.41375 69.24C6.37375 70.04 7.57375 69.88 8.69375 69.8C9.41375 69.64 10.1338 69.4 10.8538 69.08C15.0938 66.92 18.6938 64.04 21.7338 60.44C23.8938 57.88 25.8138 55.08 27.3338 52.12C27.8938 51.08 28.2138 49.96 28.3738 48.76C28.4538 48.44 28.2938 48.28 27.9738 48.2C26.6138 48.2 25.3338 48.04 23.9738 47.96C22.2938 47.88 20.6938 47.96 19.0138 47.96C16.3738 47.88 13.7338 47.88 11.0938 47.48C7.65375 46.92 4.93375 45.24 2.85375 42.44C0.853752 39.8 0.0537514 36.84 0.373751 33.64C0.613751 31.24 1.49375 29 2.53375 26.76C4.29375 23.32 6.53375 20.12 9.09375 17.16C11.5738 14.28 14.2938 11.72 17.6538 9.88C19.3338 9 21.0138 8.28 22.8538 8.04C25.2538 7.64 27.4138 8.2 29.1738 9.96C30.4538 11.4 31.6538 13 32.4538 14.76C32.8538 15.64 33.0138 16.6 33.0938 17.56C33.2538 19.88 32.9338 22.12 32.5338 24.28C31.9738 27.24 31.3338 30.12 30.1338 32.92C29.4138 34.68 28.4538 36.36 27.2538 37.8C26.8538 38.28 26.3738 38.68 25.8138 38.92C24.6138 39.4 23.3338 38.84 22.7738 37.72C22.3738 37.08 22.5338 36.44 23.1738 35.96C23.3338 35.8 23.5738 35.72 23.7338 35.56C24.4538 35.08 25.0938 34.44 25.4938 33.56C27.1738 29.48 28.2138 25.16 28.6938 20.76C28.8538 19.08 28.8538 17.48 28.7738 15.8C28.7738 14.92 28.4538 14.04 28.2138 13.16C28.1338 12.76 27.8938 12.68 27.4938 12.68C26.9338 12.68 26.2938 12.84 25.7338 13C23.5738 13.72 21.6538 14.76 19.8138 16.12C15.8938 19.16 12.6938 22.92 9.81375 27C7.81375 29.88 6.21375 32.92 5.25375 36.36C4.77375 38.12 4.85375 39.8 5.33375 41.48C5.41375 41.88 5.65375 42.2 5.97375 42.44C7.09375 43.32 8.45375 43.64 9.81375 43.72C10.9338 43.8 12.0538 43.72 13.1738 43.72ZM42.7006 30.28C39.1006 30.92 35.6606 31.16 32.1406 31.24C30.5406 31.24 28.8606 30.92 27.2606 30.44C26.1406 30.12 25.1806 29.4 24.4606 28.36C23.3406 26.84 23.5806 24.6 24.9406 23.4C25.1806 23.08 25.5806 22.84 25.9806 22.76C26.5406 22.68 27.0206 22.84 27.2606 23.24C27.5806 23.64 27.5006 24.12 27.1806 24.6C27.0206 24.92 26.6206 25.08 26.3006 25.4C26.8606 26.04 27.4206 26.52 28.1406 26.92C30.4606 28.04 32.9406 28.68 35.5806 28.76C37.8206 28.76 40.0606 28.68 42.3006 28.36C43.1006 28.2 43.1006 28.2 43.2606 27.48C43.6606 25.24 44.1406 23 44.6206 20.76C45.1806 18.04 45.9806 15.48 46.7006 12.84C47.0206 11.72 48.7006 11.24 49.5006 12.04C50.3006 12.84 51.1006 13.56 51.6606 14.6C51.9006 15.16 51.9806 15.72 51.6606 16.36C50.9406 17.64 50.7006 19.08 50.3806 20.44C49.9006 22.44 49.5806 24.44 49.2606 26.52C51.1806 25.96 52.9406 25.4 54.7006 24.76C57.5006 23.8 60.3806 22.92 63.3406 22.36C65.5006 22.04 67.5806 21.8 69.7406 22.28C70.9406 22.52 72.1406 23.08 73.1806 23.8C74.7806 25 75.4206 26.68 75.1006 28.68C75.0206 29.32 74.6206 29.96 74.1406 30.36C73.6606 30.76 73.1806 30.76 72.7806 30.52C72.3806 30.12 72.3806 29.72 72.7806 29.16C72.7806 29.16 72.7806 29.16 72.7806 29.08C73.5006 28.12 73.5006 28.12 72.4606 27.4C71.1006 26.52 69.5806 26.28 67.9806 26.2C63.2606 25.88 58.5406 26.28 53.9006 27.56C52.4606 27.96 51.1006 28.36 49.6606 28.6C49.0206 28.76 48.7806 29 48.7006 29.64C48.2206 32.92 47.5806 36.28 47.2606 39.56C47.0206 42.52 46.6206 45.48 46.5406 48.44C46.4606 51.32 46.4606 54.2 46.4606 57.08C46.3806 59.88 46.7006 62.6 47.4206 65.24C47.4206 65.48 47.5006 65.72 47.5806 65.88C47.9806 67.24 49.0206 67.56 50.3006 66.92C51.4206 66.28 52.1406 65.32 52.7806 64.36C55.1006 60.76 57.0206 57 58.4606 53C58.6206 52.52 58.8606 52.04 59.0206 51.56C59.1806 51.32 59.4206 51 59.8206 51.16C60.1406 51.24 60.4606 51.56 60.3806 51.96C60.3806 52.44 60.3006 52.84 60.1406 53.24C58.6206 57.64 56.9406 61.88 54.5406 65.88C53.9806 66.84 53.4206 67.88 52.4606 68.6C51.5806 69.24 50.6206 69.48 49.6606 69.4C46.8606 69.16 45.0206 67.48 43.6606 65.24C42.7006 63.56 42.2206 61.72 41.9006 59.8C41.3406 56.44 41.2606 53.08 41.3406 49.64C41.3406 48.76 41.3406 47.8 41.3406 46.84C41.5006 42.12 41.7406 37.4 42.4606 32.76C42.5406 31.96 42.6206 31.16 42.7006 30.28ZM59.23 56.04C59.39 54.2 59.55 51.64 60.43 49.24C61.39 46.6 63.07 44.52 65.71 43.4C66.43 43.08 67.23 42.92 67.95 42.84C69.55 42.68 70.83 43.08 71.79 44.36C72.51 45.24 73.23 46.04 73.47 47.16C73.55 47.64 73.63 48.12 73.55 48.52C73.23 50.6 72.35 52.44 70.83 53.96C69.31 55.56 67.55 56.84 65.39 57.48C65.07 57.64 64.91 57.8 64.91 58.12C64.83 60.12 64.91 62.12 65.87 63.96C66.11 64.44 66.43 64.76 66.91 65C68.51 65.56 70.03 65.32 71.55 64.6C74.43 63 76.43 60.68 78.03 57.8C78.83 56.36 79.63 54.84 80.11 53.24C80.11 53.16 80.11 53.08 80.19 53C80.43 52.68 80.51 52.2 81.07 52.28C81.47 52.36 81.95 52.92 81.95 53.48C81.87 53.8 81.87 54.2 81.71 54.52C80.43 57.88 78.83 61 76.35 63.72C75.23 65 73.95 66.04 72.51 67C70.19 68.44 66.99 68.44 64.59 66.6C62.75 65.24 61.31 63.56 60.27 61.56C59.47 60.04 59.07 58.44 59.23 56.04ZM65.39 55.4C65.71 55.16 66.11 54.92 66.51 54.68C69.23 53 70.35 50.36 70.43 47.24C70.51 46.6 70.27 46.44 69.71 46.84C69.31 47.16 68.99 47.48 68.67 47.8C67.47 48.76 66.83 50.12 66.27 51.4C65.79 52.44 65.63 53.56 65.31 54.68C65.31 54.92 65.23 55.08 65.39 55.4ZM81.9594 47.48C82.0394 43.96 82.1194 40.44 82.3594 36.92C82.8394 29.8 84.2794 23 86.5994 16.28C87.3994 14.28 88.5194 12.52 90.1994 11.08C91.4794 9.8 92.9994 9.32 94.8394 9.88C95.3194 10.04 95.7994 10.28 96.1194 10.6C98.1994 12.52 99.3994 14.76 99.6394 17.56C99.8794 19.8 99.7194 22.12 99.3994 24.36C98.9994 27.48 98.2794 30.52 97.3194 33.56C95.6394 38.52 93.5594 43.32 90.1994 47.4C89.7994 47.88 89.3994 48.36 88.9194 48.76C88.6794 49.08 88.5194 49.32 88.5194 49.72C88.5194 52.92 88.5194 56.12 88.5994 59.32C88.6794 61.16 88.7594 63.08 89.4794 64.92C89.7994 65.88 90.2794 66.12 91.2394 65.72C92.1994 65.4 92.9994 64.84 93.6394 64.04C94.9994 62.44 96.1194 60.6 97.0794 58.76C98.0394 56.76 99.1594 54.84 99.7194 52.68C99.8794 52.04 100.199 51.88 100.679 52.04C101.479 52.28 101.959 53 101.719 53.56C101.399 54.28 100.999 55 100.679 55.72C99.2394 58.68 97.8794 61.72 96.1194 64.52C95.3994 65.72 94.5194 66.84 93.3194 67.64C92.5994 68.2 91.7994 68.36 90.9994 68.2C89.7194 68.04 88.5194 67.56 87.4794 66.68C85.1594 64.76 83.7994 62.28 83.1594 59.48C82.5994 56.92 82.2794 54.28 82.0394 51.64C81.9594 50.2 81.9594 48.84 81.9594 47.48ZM95.7994 13.88C94.8394 14.76 94.1194 15.64 93.5594 16.76C92.5994 18.52 92.1194 20.52 91.6394 22.44C91.0794 25 90.5194 27.56 90.1194 30.2C89.7194 32.44 89.3994 34.76 89.1594 37C88.9194 39.48 88.7594 42.04 88.5994 44.52C88.5994 45 88.5194 45.48 88.6794 46.04C88.9994 45.88 89.0794 45.64 89.2394 45.4C91.2394 42.44 92.7594 39.24 93.9594 35.88C95.8794 30.68 97.0794 25.4 96.9194 19.8C96.9194 18.36 96.8394 17 96.5194 15.56C96.3594 15 96.2794 14.44 95.7994 13.88ZM114.12 56.36C113.32 58.2 112.52 60.12 111.64 62.04C110.92 63.56 110.2 65.08 109.4 66.6C108.44 68.36 107.48 69 105.32 68.12C102.68 67.16 101.32 65.48 101.08 62.68C100.92 60.28 101.32 57.96 101.72 55.64C102.2 53.32 102.92 51.08 103.88 49C104.68 47.24 105.8 45.72 107.4 44.6C108.28 43.96 109.24 43.4 110.44 43.48C110.6 43.56 110.84 43.48 111 43.56C112.68 44.28 114.28 45.08 115.16 46.84C115.24 47 115.32 47.16 115.48 47.32C115.8 48.04 115.8 48.04 116.68 47.88C117 47.8 117.32 47.8 117.56 47.96C118.36 48.52 119.24 48.84 119.96 49.48C120.52 49.96 120.84 50.6 120.6 51.48C119.88 53.72 119.72 56.04 119.48 58.36C119.4 59.4 119.4 60.52 119.56 61.56C119.56 61.88 119.64 62.2 119.72 62.52C119.96 63.24 120.28 63.48 121.08 63.32C121.88 63.16 122.52 62.68 123.08 62.12C124.6 60.6 125.72 58.84 126.6 56.92C127.08 55.72 127.4 54.52 127.88 53.32C127.96 53.16 128.04 52.92 128.12 52.76C128.28 52.44 128.52 52.12 128.92 52.28C129.32 52.44 129.56 52.76 129.56 53.16C129.4 53.96 129.24 54.68 129 55.4C128.44 56.92 127.8 58.36 127.08 59.8C126.44 61.24 125.48 62.44 124.44 63.56C123 65.08 121.32 65.4 119.48 64.6C117.24 63.64 115.56 62.04 114.84 59.56C114.6 58.52 114.36 57.4 114.12 56.36ZM112.68 46.44C112.28 46.68 112.04 47 111.88 47.32C111.32 48.36 110.68 49.4 110.28 50.52C108.6 54.76 107.48 59.08 106.76 63.56C106.76 63.88 106.68 64.12 106.92 64.44C107.8 63.48 108.44 62.44 109.08 61.4C110.68 58.52 112.12 55.56 113.96 52.84C114.76 51.72 114.92 50.52 114.28 49.24C113.88 48.28 113.48 47.24 112.68 46.44ZM140.491 66.68C141.851 65.72 142.891 64.68 143.691 63.4C145.531 60.52 146.891 57.32 148.171 54.2C148.411 53.4 148.731 52.68 149.051 51.96C149.211 51.56 149.371 51.16 149.931 51.32C150.331 51.4 150.651 52.12 150.571 52.52C150.411 53.16 150.171 53.72 150.011 54.28C148.651 57.72 147.371 61.08 145.851 64.44C145.211 65.88 144.491 67.32 143.531 68.52C141.771 70.76 140.971 70.92 138.491 69.48C136.651 68.36 135.131 66.76 134.811 64.44C134.571 63.16 134.811 61.96 134.971 60.76C135.211 59.16 135.531 57.64 135.451 56.04C135.451 55.8 135.451 55.56 135.451 55.24C135.371 54.6 135.131 54.2 134.491 53.88C132.251 52.92 130.571 51.24 129.051 49.48C128.091 48.36 127.611 47 127.371 45.56C126.891 43 127.291 40.44 128.331 38.04C129.051 36.28 130.411 35.16 132.251 34.84C133.451 34.6 134.491 34.92 135.291 35.8C135.451 35.96 135.611 36.12 135.771 36.28C137.291 37.56 137.611 39.16 137.211 41.08C136.491 43.8 135.211 46.2 133.531 48.36C133.291 48.6 132.891 48.76 133.051 49.16C133.131 49.56 133.371 49.88 133.691 50.2C134.331 50.6 135.051 51 135.691 51.32C136.571 51.72 137.371 52.28 138.011 52.92C138.491 53.24 138.891 53.64 138.971 54.2C138.971 54.44 139.131 54.6 139.291 54.84C140.091 56.12 140.571 57.48 140.731 59C140.971 60.68 140.891 62.36 140.651 64.12C140.571 64.92 140.491 65.72 140.491 66.68ZM134.491 37.72C133.691 38.36 133.211 38.92 132.971 39.64C132.731 40.36 132.571 41 132.491 41.64C132.171 43.24 132.011 44.92 132.491 46.68C134.251 43.96 134.971 41.08 134.491 37.72ZM156.062 64.6C156.542 64.52 156.702 64.12 156.942 63.88C157.822 62.6 158.542 61.24 159.182 59.8C160.702 56.2 162.142 52.6 163.502 49C163.982 47.56 164.382 46.04 165.182 44.68C165.262 44.52 165.262 44.36 165.342 44.2C165.342 43.72 165.582 43.32 166.062 43.24C166.622 43.16 167.102 43.16 167.582 43.64C168.462 44.44 168.782 45.4 168.862 46.6C169.022 48.84 169.182 51.08 169.342 53.4C169.502 55.72 169.742 57.96 169.822 60.28C169.982 62.84 170.062 65.32 169.982 67.8C169.902 68.68 169.742 69.64 169.662 70.6C169.502 71.32 169.502 71.32 170.222 71.64C171.822 72.36 173.342 73.32 174.462 74.76C174.862 75.16 175.182 75.64 175.262 76.28C175.422 77 175.182 77.64 174.702 78.2C174.222 78.68 173.662 78.68 173.022 78.44C172.542 78.2 172.142 77.8 171.982 77.24C171.822 76.76 171.582 76.36 171.582 75.88C171.422 74.44 170.382 73.88 169.262 73.24C169.182 73.72 169.022 74.12 168.942 74.52C168.542 76.76 167.982 79 167.102 81.16C166.542 82.6 165.662 83.8 164.622 84.92C163.342 86.28 162.062 87.8 160.302 88.76C158.542 89.72 156.702 90.52 154.702 90.36C151.662 90.12 149.102 88.84 147.422 86.12C146.622 84.92 146.462 83.48 146.782 82.12C147.582 78.36 149.822 75.64 152.862 73.56C155.822 71.48 159.182 70.44 162.782 70.44C163.102 70.44 163.422 70.36 163.742 70.36C164.702 70.28 164.702 70.28 164.862 69.32C165.262 67.16 165.422 64.92 165.502 62.76C165.582 61.4 165.662 59.96 165.582 58.6C165.502 56.2 165.582 53.88 165.342 51.48C165.262 50.84 165.342 50.12 165.182 49.4C164.942 50.04 164.622 50.68 164.382 51.4C162.862 55.72 161.342 59.96 159.982 64.36C159.742 65.16 159.342 66.04 158.622 66.68C157.982 67.24 157.262 67.48 156.382 67.16C154.382 66.44 153.022 65.08 152.142 63.24C151.422 61.8 151.102 60.28 151.102 58.68C150.942 54.44 151.422 50.2 152.302 46.04C152.462 45.48 152.702 44.84 152.862 44.2C153.182 43.08 154.862 42.76 155.742 43.48C156.302 44.04 156.862 44.68 157.502 45.32C157.982 45.88 158.062 46.6 157.822 47.32C157.022 49.64 156.622 52.12 156.222 54.52C156.142 55.56 156.062 56.6 155.982 57.64C155.902 59.88 155.662 62.12 155.982 64.44C155.982 64.44 156.062 64.52 156.062 64.6ZM164.222 72.44C163.902 72.44 163.822 72.44 163.662 72.44C160.702 72.84 157.902 73.72 155.342 75.32C152.462 77.16 150.462 79.72 149.422 83C149.262 83.56 149.102 84.12 149.182 84.68C149.182 86.36 150.462 87.48 152.142 87.08C154.142 86.68 155.982 85.88 157.582 84.52C160.302 82.12 162.382 79.24 163.422 75.64C163.742 74.68 164.062 73.64 164.222 72.44Z" fill="#6B7280"></path><path d="M13.1738 43.72C16.1338 43.88 19.1738 43.56 22.1338 43.56C23.8938 43.64 25.5738 43.72 27.2538 43.96C28.2138 44.12 29.1738 44.44 29.9738 45C30.2138 45.16 30.4538 45.32 30.6138 45.48C32.2938 47.64 33.5738 49.88 33.5738 52.76C33.4938 54.68 33.0938 56.52 32.1338 58.2C30.8538 60.52 29.7338 62.84 28.1338 65C26.5338 67.16 24.6938 69.08 22.5338 70.68C20.7738 71.88 19.0938 73.16 17.0938 74.04C14.2938 75.32 11.5738 75.16 8.93375 73.8C7.97375 73.24 7.09375 72.68 6.21375 72.04C4.85375 71.08 3.97375 69.72 3.09375 68.28C3.01375 68.04 2.85375 67.88 3.01375 67.64C3.25375 67.4 3.49375 67.56 3.65375 67.56C4.05375 67.72 4.37375 67.96 4.61375 68.28C4.85375 68.6 5.09375 68.92 5.41375 69.24C6.37375 70.04 7.57375 69.88 8.69375 69.8C9.41375 69.64 10.1338 69.4 10.8538 69.08C15.0938 66.92 18.6938 64.04 21.7338 60.44C23.8938 57.88 25.8138 55.08 27.3338 52.12C27.8938 51.08 28.2138 49.96 28.3738 48.76C28.4538 48.44 28.2938 48.28 27.9738 48.2C26.6138 48.2 25.3338 48.04 23.9738 47.96C22.2938 47.88 20.6938 47.96 19.0138 47.96C16.3738 47.88 13.7338 47.88 11.0938 47.48C7.65375 46.92 4.93375 45.24 2.85375 42.44C0.853752 39.8 0.0537514 36.84 0.373751 33.64C0.613751 31.24 1.49375 29 2.53375 26.76C4.29375 23.32 6.53375 20.12 9.09375 17.16C11.5738 14.28 14.2938 11.72 17.6538 9.88C19.3338 9 21.0138 8.28 22.8538 8.04C25.2538 7.64 27.4138 8.2 29.1738 9.96C30.4538 11.4 31.6538 13 32.4538 14.76C32.8538 15.64 33.0138 16.6 33.0938 17.56C33.2538 19.88 32.9338 22.12 32.5338 24.28C31.9738 27.24 31.3338 30.12 30.1338 32.92C29.4138 34.68 28.4538 36.36 27.2538 37.8C26.8538 38.28 26.3738 38.68 25.8138 38.92C24.6138 39.4 23.3338 38.84 22.7738 37.72C22.3738 37.08 22.5338 36.44 23.1738 35.96C23.3338 35.8 23.5738 35.72 23.7338 35.56C24.4538 35.08 25.0938 34.44 25.4938 33.56C27.1738 29.48 28.2138 25.16 28.6938 20.76C28.8538 19.08 28.8538 17.48 28.7738 15.8C28.7738 14.92 28.4538 14.04 28.2138 13.16C28.1338 12.76 27.8938 12.68 27.4938 12.68C26.9338 12.68 26.2938 12.84 25.7338 13C23.5738 13.72 21.6538 14.76 19.8138 16.12C15.8938 19.16 12.6938 22.92 9.81375 27C7.81375 29.88 6.21375 32.92 5.25375 36.36C4.77375 38.12 4.85375 39.8 5.33375 41.48C5.41375 41.88 5.65375 42.2 5.97375 42.44C7.09375 43.32 8.45375 43.64 9.81375 43.72C10.9338 43.8 12.0538 43.72 13.1738 43.72ZM42.7006 30.28C39.1006 30.92 35.6606 31.16 32.1406 31.24C30.5406 31.24 28.8606 30.92 27.2606 30.44C26.1406 30.12 25.1806 29.4 24.4606 28.36C23.3406 26.84 23.5806 24.6 24.9406 23.4C25.1806 23.08 25.5806 22.84 25.9806 22.76C26.5406 22.68 27.0206 22.84 27.2606 23.24C27.5806 23.64 27.5006 24.12 27.1806 24.6C27.0206 24.92 26.6206 25.08 26.3006 25.4C26.8606 26.04 27.4206 26.52 28.1406 26.92C30.4606 28.04 32.9406 28.68 35.5806 28.76C37.8206 28.76 40.0606 28.68 42.3006 28.36C43.1006 28.2 43.1006 28.2 43.2606 27.48C43.6606 25.24 44.1406 23 44.6206 20.76C45.1806 18.04 45.9806 15.48 46.7006 12.84C47.0206 11.72 48.7006 11.24 49.5006 12.04C50.3006 12.84 51.1006 13.56 51.6606 14.6C51.9006 15.16 51.9806 15.72 51.6606 16.36C50.9406 17.64 50.7006 19.08 50.3806 20.44C49.9006 22.44 49.5806 24.44 49.2606 26.52C51.1806 25.96 52.9406 25.4 54.7006 24.76C57.5006 23.8 60.3806 22.92 63.3406 22.36C65.5006 22.04 67.5806 21.8 69.7406 22.28C70.9406 22.52 72.1406 23.08 73.1806 23.8C74.7806 25 75.4206 26.68 75.1006 28.68C75.0206 29.32 74.6206 29.96 74.1406 30.36C73.6606 30.76 73.1806 30.76 72.7806 30.52C72.3806 30.12 72.3806 29.72 72.7806 29.16C72.7806 29.16 72.7806 29.16 72.7806 29.08C73.5006 28.12 73.5006 28.12 72.4606 27.4C71.1006 26.52 69.5806 26.28 67.9806 26.2C63.2606 25.88 58.5406 26.28 53.9006 27.56C52.4606 27.96 51.1006 28.36 49.6606 28.6C49.0206 28.76 48.7806 29 48.7006 29.64C48.2206 32.92 47.5806 36.28 47.2606 39.56C47.0206 42.52 46.6206 45.48 46.5406 48.44C46.4606 51.32 46.4606 54.2 46.4606 57.08C46.3806 59.88 46.7006 62.6 47.4206 65.24C47.4206 65.48 47.5006 65.72 47.5806 65.88C47.9806 67.24 49.0206 67.56 50.3006 66.92C51.4206 66.28 52.1406 65.32 52.7806 64.36C55.1006 60.76 57.0206 57 58.4606 53C58.6206 52.52 58.8606 52.04 59.0206 51.56C59.1806 51.32 59.4206 51 59.8206 51.16C60.1406 51.24 60.4606 51.56 60.3806 51.96C60.3806 52.44 60.3006 52.84 60.1406 53.24C58.6206 57.64 56.9406 61.88 54.5406 65.88C53.9806 66.84 53.4206 67.88 52.4606 68.6C51.5806 69.24 50.6206 69.48 49.6606 69.4C46.8606 69.16 45.0206 67.48 43.6606 65.24C42.7006 63.56 42.2206 61.72 41.9006 59.8C41.3406 56.44 41.2606 53.08 41.3406 49.64C41.3406 48.76 41.3406 47.8 41.3406 46.84C41.5006 42.12 41.7406 37.4 42.4606 32.76C42.5406 31.96 42.6206 31.16 42.7006 30.28ZM59.23 56.04C59.39 54.2 59.55 51.64 60.43 49.24C61.39 46.6 63.07 44.52 65.71 43.4C66.43 43.08 67.23 42.92 67.95 42.84C69.55 42.68 70.83 43.08 71.79 44.36C72.51 45.24 73.23 46.04 73.47 47.16C73.55 47.64 73.63 48.12 73.55 48.52C73.23 50.6 72.35 52.44 70.83 53.96C69.31 55.56 67.55 56.84 65.39 57.48C65.07 57.64 64.91 57.8 64.91 58.12C64.83 60.12 64.91 62.12 65.87 63.96C66.11 64.44 66.43 64.76 66.91 65C68.51 65.56 70.03 65.32 71.55 64.6C74.43 63 76.43 60.68 78.03 57.8C78.83 56.36 79.63 54.84 80.11 53.24C80.11 53.16 80.11 53.08 80.19 53C80.43 52.68 80.51 52.2 81.07 52.28C81.47 52.36 81.95 52.92 81.95 53.48C81.87 53.8 81.87 54.2 81.71 54.52C80.43 57.88 78.83 61 76.35 63.72C75.23 65 73.95 66.04 72.51 67C70.19 68.44 66.99 68.44 64.59 66.6C62.75 65.24 61.31 63.56 60.27 61.56C59.47 60.04 59.07 58.44 59.23 56.04ZM65.39 55.4C65.71 55.16 66.11 54.92 66.51 54.68C69.23 53 70.35 50.36 70.43 47.24C70.51 46.6 70.27 46.44 69.71 46.84C69.31 47.16 68.99 47.48 68.67 47.8C67.47 48.76 66.83 50.12 66.27 51.4C65.79 52.44 65.63 53.56 65.31 54.68C65.31 54.92 65.23 55.08 65.39 55.4ZM81.9594 47.48C82.0394 43.96 82.1194 40.44 82.3594 36.92C82.8394 29.8 84.2794 23 86.5994 16.28C87.3994 14.28 88.5194 12.52 90.1994 11.08C91.4794 9.8 92.9994 9.32 94.8394 9.88C95.3194 10.04 95.7994 10.28 96.1194 10.6C98.1994 12.52 99.3994 14.76 99.6394 17.56C99.8794 19.8 99.7194 22.12 99.3994 24.36C98.9994 27.48 98.2794 30.52 97.3194 33.56C95.6394 38.52 93.5594 43.32 90.1994 47.4C89.7994 47.88 89.3994 48.36 88.9194 48.76C88.6794 49.08 88.5194 49.32 88.5194 49.72C88.5194 52.92 88.5194 56.12 88.5994 59.32C88.6794 61.16 88.7594 63.08 89.4794 64.92C89.7994 65.88 90.2794 66.12 91.2394 65.72C92.1994 65.4 92.9994 64.84 93.6394 64.04C94.9994 62.44 96.1194 60.6 97.0794 58.76C98.0394 56.76 99.1594 54.84 99.7194 52.68C99.8794 52.04 100.199 51.88 100.679 52.04C101.479 52.28 101.959 53 101.719 53.56C101.399 54.28 100.999 55 100.679 55.72C99.2394 58.68 97.8794 61.72 96.1194 64.52C95.3994 65.72 94.5194 66.84 93.3194 67.64C92.5994 68.2 91.7994 68.36 90.9994 68.2C89.7194 68.04 88.5194 67.56 87.4794 66.68C85.1594 64.76 83.7994 62.28 83.1594 59.48C82.5994 56.92 82.2794 54.28 82.0394 51.64C81.9594 50.2 81.9594 48.84 81.9594 47.48ZM95.7994 13.88C94.8394 14.76 94.1194 15.64 93.5594 16.76C92.5994 18.52 92.1194 20.52 91.6394 22.44C91.0794 25 90.5194 27.56 90.1194 30.2C89.7194 32.44 89.3994 34.76 89.1594 37C88.9194 39.48 88.7594 42.04 88.5994 44.52C88.5994 45 88.5194 45.48 88.6794 46.04C88.9994 45.88 89.0794 45.64 89.2394 45.4C91.2394 42.44 92.7594 39.24 93.9594 35.88C95.8794 30.68 97.0794 25.4 96.9194 19.8C96.9194 18.36 96.8394 17 96.5194 15.56C96.3594 15 96.2794 14.44 95.7994 13.88ZM114.12 56.36C113.32 58.2 112.52 60.12 111.64 62.04C110.92 63.56 110.2 65.08 109.4 66.6C108.44 68.36 107.48 69 105.32 68.12C102.68 67.16 101.32 65.48 101.08 62.68C100.92 60.28 101.32 57.96 101.72 55.64C102.2 53.32 102.92 51.08 103.88 49C104.68 47.24 105.8 45.72 107.4 44.6C108.28 43.96 109.24 43.4 110.44 43.48C110.6 43.56 110.84 43.48 111 43.56C112.68 44.28 114.28 45.08 115.16 46.84C115.24 47 115.32 47.16 115.48 47.32C115.8 48.04 115.8 48.04 116.68 47.88C117 47.8 117.32 47.8 117.56 47.96C118.36 48.52 119.24 48.84 119.96 49.48C120.52 49.96 120.84 50.6 120.6 51.48C119.88 53.72 119.72 56.04 119.48 58.36C119.4 59.4 119.4 60.52 119.56 61.56C119.56 61.88 119.64 62.2 119.72 62.52C119.96 63.24 120.28 63.48 121.08 63.32C121.88 63.16 122.52 62.68 123.08 62.12C124.6 60.6 125.72 58.84 126.6 56.92C127.08 55.72 127.4 54.52 127.88 53.32C127.96 53.16 128.04 52.92 128.12 52.76C128.28 52.44 128.52 52.12 128.92 52.28C129.32 52.44 129.56 52.76 129.56 53.16C129.4 53.96 129.24 54.68 129 55.4C128.44 56.92 127.8 58.36 127.08 59.8C126.44 61.24 125.48 62.44 124.44 63.56C123 65.08 121.32 65.4 119.48 64.6C117.24 63.64 115.56 62.04 114.84 59.56C114.6 58.52 114.36 57.4 114.12 56.36ZM112.68 46.44C112.28 46.68 112.04 47 111.88 47.32C111.32 48.36 110.68 49.4 110.28 50.52C108.6 54.76 107.48 59.08 106.76 63.56C106.76 63.88 106.68 64.12 106.92 64.44C107.8 63.48 108.44 62.44 109.08 61.4C110.68 58.52 112.12 55.56 113.96 52.84C114.76 51.72 114.92 50.52 114.28 49.24C113.88 48.28 113.48 47.24 112.68 46.44ZM140.491 66.68C141.851 65.72 142.891 64.68 143.691 63.4C145.531 60.52 146.891 57.32 148.171 54.2C148.411 53.4 148.731 52.68 149.051 51.96C149.211 51.56 149.371 51.16 149.931 51.32C150.331 51.4 150.651 52.12 150.571 52.52C150.411 53.16 150.171 53.72 150.011 54.28C148.651 57.72 147.371 61.08 145.851 64.44C145.211 65.88 144.491 67.32 143.531 68.52C141.771 70.76 140.971 70.92 138.491 69.48C136.651 68.36 135.131 66.76 134.811 64.44C134.571 63.16 134.811 61.96 134.971 60.76C135.211 59.16 135.531 57.64 135.451 56.04C135.451 55.8 135.451 55.56 135.451 55.24C135.371 54.6 135.131 54.2 134.491 53.88C132.251 52.92 130.571 51.24 129.051 49.48C128.091 48.36 127.611 47 127.371 45.56C126.891 43 127.291 40.44 128.331 38.04C129.051 36.28 130.411 35.16 132.251 34.84C133.451 34.6 134.491 34.92 135.291 35.8C135.451 35.96 135.611 36.12 135.771 36.28C137.291 37.56 137.611 39.16 137.211 41.08C136.491 43.8 135.211 46.2 133.531 48.36C133.291 48.6 132.891 48.76 133.051 49.16C133.131 49.56 133.371 49.88 133.691 50.2C134.331 50.6 135.051 51 135.691 51.32C136.571 51.72 137.371 52.28 138.011 52.92C138.491 53.24 138.891 53.64 138.971 54.2C138.971 54.44 139.131 54.6 139.291 54.84C140.091 56.12 140.571 57.48 140.731 59C140.971 60.68 140.891 62.36 140.651 64.12C140.571 64.92 140.491 65.72 140.491 66.68ZM134.491 37.72C133.691 38.36 133.211 38.92 132.971 39.64C132.731 40.36 132.571 41 132.491 41.64C132.171 43.24 132.011 44.92 132.491 46.68C134.251 43.96 134.971 41.08 134.491 37.72ZM156.062 64.6C156.542 64.52 156.702 64.12 156.942 63.88C157.822 62.6 158.542 61.24 159.182 59.8C160.702 56.2 162.142 52.6 163.502 49C163.982 47.56 164.382 46.04 165.182 44.68C165.262 44.52 165.262 44.36 165.342 44.2C165.342 43.72 165.582 43.32 166.062 43.24C166.622 43.16 167.102 43.16 167.582 43.64C168.462 44.44 168.782 45.4 168.862 46.6C169.022 48.84 169.182 51.08 169.342 53.4C169.502 55.72 169.742 57.96 169.822 60.28C169.982 62.84 170.062 65.32 169.982 67.8C169.902 68.68 169.742 69.64 169.662 70.6C169.502 71.32 169.502 71.32 170.222 71.64C171.822 72.36 173.342 73.32 174.462 74.76C174.862 75.16 175.182 75.64 175.262 76.28C175.422 77 175.182 77.64 174.702 78.2C174.222 78.68 173.662 78.68 173.022 78.44C172.542 78.2 172.142 77.8 171.982 77.24C171.822 76.76 171.582 76.36 171.582 75.88C171.422 74.44 170.382 73.88 169.262 73.24C169.182 73.72 169.022 74.12 168.942 74.52C168.542 76.76 167.982 79 167.102 81.16C166.542 82.6 165.662 83.8 164.622 84.92C163.342 86.28 162.062 87.8 160.302 88.76C158.542 89.72 156.702 90.52 154.702 90.36C151.662 90.12 149.102 88.84 147.422 86.12C146.622 84.92 146.462 83.48 146.782 82.12C147.582 78.36 149.822 75.64 152.862 73.56C155.822 71.48 159.182 70.44 162.782 70.44C163.102 70.44 163.422 70.36 163.742 70.36C164.702 70.28 164.702 70.28 164.862 69.32C165.262 67.16 165.422 64.92 165.502 62.76C165.582 61.4 165.662 59.96 165.582 58.6C165.502 56.2 165.582 53.88 165.342 51.48C165.262 50.84 165.342 50.12 165.182 49.4C164.942 50.04 164.622 50.68 164.382 51.4C162.862 55.72 161.342 59.96 159.982 64.36C159.742 65.16 159.342 66.04 158.622 66.68C157.982 67.24 157.262 67.48 156.382 67.16C154.382 66.44 153.022 65.08 152.142 63.24C151.422 61.8 151.102 60.28 151.102 58.68C150.942 54.44 151.422 50.2 152.302 46.04C152.462 45.48 152.702 44.84 152.862 44.2C153.182 43.08 154.862 42.76 155.742 43.48C156.302 44.04 156.862 44.68 157.502 45.32C157.982 45.88 158.062 46.6 157.822 47.32C157.022 49.64 156.622 52.12 156.222 54.52C156.142 55.56 156.062 56.6 155.982 57.64C155.902 59.88 155.662 62.12 155.982 64.44C155.982 64.44 156.062 64.52 156.062 64.6ZM164.222 72.44C163.902 72.44 163.822 72.44 163.662 72.44C160.702 72.84 157.902 73.72 155.342 75.32C152.462 77.16 150.462 79.72 149.422 83C149.262 83.56 149.102 84.12 149.182 84.68C149.182 86.36 150.462 87.48 152.142 87.08C154.142 86.68 155.982 85.88 157.582 84.52C160.302 82.12 162.382 79.24 163.422 75.64C163.742 74.68 164.062 73.64 164.222 72.44Z" fill="black" fill-opacity="0.8"></path><g opacity="0.5"><path d="M61.3373 99H60.2006L60.0717 85.8633C60.0717 84.957 60.3881 84.1797 61.0209 83.5312C61.6928 82.8828 62.4702 82.5586 63.353 82.5586C64.228 82.5586 65.0092 82.8828 65.6967 83.5312C66.3452 84.1797 66.6772 84.957 66.6928 85.8633L66.7045 86.168H65.5678V85.8633C65.5522 85.2695 65.3334 84.7578 64.9116 84.3281C64.4584 83.8984 63.9428 83.6836 63.3647 83.6836C62.7866 83.6836 62.2748 83.8984 61.8295 84.3281C61.4155 84.7578 61.2045 85.2695 61.1967 85.8633L61.2319 88.6875H64.6186L64.6303 89.8125H61.2436L61.3373 99ZM76.02 99C74.9262 99 73.8755 98.793 72.8677 98.3789C71.8677 97.9648 70.9731 97.3672 70.1841 96.5859C68.5903 94.9688 67.7661 93.0312 67.7114 90.7734C67.7192 88.5156 68.5005 86.5781 70.0552 84.9609C70.8364 84.1875 71.7231 83.5938 72.7153 83.1797C73.7075 82.7656 74.7505 82.5586 75.8442 82.5586C76.938 82.5586 77.9848 82.7656 78.9848 83.1797C79.9927 83.5938 80.8911 84.1875 81.6802 84.9609C83.2739 86.5781 84.0981 88.5156 84.1528 90.7734C84.145 93.0312 83.3637 94.9688 81.8091 96.5859C81.0278 97.3672 80.1411 97.9648 79.1489 98.3789C78.1567 98.793 77.1137 99 76.02 99ZM76.0083 97.8633C77.8911 97.8633 79.5552 97.1719 81.0005 95.7891C82.3442 94.3984 83.02 92.7266 83.0278 90.7734C82.9809 88.8281 82.27 87.1562 80.895 85.7578C79.4262 84.375 77.7466 83.6836 75.8559 83.6836C73.9731 83.6836 72.3091 84.375 70.8637 85.7578C69.52 87.1562 68.8442 88.8281 68.8364 90.7734C68.8833 92.7266 69.5942 94.3984 70.9692 95.7891C72.438 97.1719 74.1177 97.8633 76.0083 97.8633ZM95.0269 99C93.9331 99 92.8823 98.793 91.8745 98.3789C90.8745 97.9648 89.98 97.3672 89.1909 96.5859C87.5972 94.9688 86.773 93.0312 86.7183 90.7734C86.7261 88.5156 87.5073 86.5781 89.062 84.9609C89.8433 84.1875 90.73 83.5938 91.7222 83.1797C92.7144 82.7656 93.7573 82.5586 94.8511 82.5586C95.9448 82.5586 96.9917 82.7656 97.9917 83.1797C98.9995 83.5938 99.898 84.1875 100.687 84.9609C102.281 86.5781 103.105 88.5156 103.16 90.7734C103.152 93.0312 102.371 94.9688 100.816 96.5859C100.035 97.3672 99.148 97.9648 98.1558 98.3789C97.1636 98.793 96.1206 99 95.0269 99ZM95.0152 97.8633C96.898 97.8633 98.562 97.1719 100.007 95.7891C101.351 94.3984 102.027 92.7266 102.035 90.7734C101.988 88.8281 101.277 87.1562 99.9019 85.7578C98.4331 84.375 96.7534 83.6836 94.8628 83.6836C92.98 83.6836 91.3159 84.375 89.8706 85.7578C88.5269 87.1562 87.8511 88.8281 87.8433 90.7734C87.8902 92.7266 88.6011 94.3984 89.9761 95.7891C91.4448 97.1719 93.1245 97.8633 95.0152 97.8633ZM109.206 99H105.889L105.725 82.5586H109.042C109.924 82.5586 110.706 82.8828 111.385 83.5312C112.034 84.1797 112.366 84.957 112.381 85.8633L112.487 95.6836C112.487 96.5898 112.17 97.3711 111.538 98.0273C110.866 98.6758 110.088 99 109.206 99ZM109.194 97.8633C109.78 97.8633 110.292 97.6484 110.729 97.2188C111.143 96.7969 111.354 96.2852 111.362 95.6836L111.256 85.8633C111.241 85.2695 111.022 84.7578 110.6 84.3281C110.147 83.8984 109.631 83.6836 109.053 83.6836H106.874L107.014 97.8633H109.194Z" fill="#6B7280"></path><path d="M61.3373 99H60.2006L60.0717 85.8633C60.0717 84.957 60.3881 84.1797 61.0209 83.5312C61.6928 82.8828 62.4702 82.5586 63.353 82.5586C64.228 82.5586 65.0092 82.8828 65.6967 83.5312C66.3452 84.1797 66.6772 84.957 66.6928 85.8633L66.7045 86.168H65.5678V85.8633C65.5522 85.2695 65.3334 84.7578 64.9116 84.3281C64.4584 83.8984 63.9428 83.6836 63.3647 83.6836C62.7866 83.6836 62.2748 83.8984 61.8295 84.3281C61.4155 84.7578 61.2045 85.2695 61.1967 85.8633L61.2319 88.6875H64.6186L64.6303 89.8125H61.2436L61.3373 99ZM76.02 99C74.9262 99 73.8755 98.793 72.8677 98.3789C71.8677 97.9648 70.9731 97.3672 70.1841 96.5859C68.5903 94.9688 67.7661 93.0312 67.7114 90.7734C67.7192 88.5156 68.5005 86.5781 70.0552 84.9609C70.8364 84.1875 71.7231 83.5938 72.7153 83.1797C73.7075 82.7656 74.7505 82.5586 75.8442 82.5586C76.938 82.5586 77.9848 82.7656 78.9848 83.1797C79.9927 83.5938 80.8911 84.1875 81.6802 84.9609C83.2739 86.5781 84.0981 88.5156 84.1528 90.7734C84.145 93.0312 83.3637 94.9688 81.8091 96.5859C81.0278 97.3672 80.1411 97.9648 79.1489 98.3789C78.1567 98.793 77.1137 99 76.02 99ZM76.0083 97.8633C77.8911 97.8633 79.5552 97.1719 81.0005 95.7891C82.3442 94.3984 83.02 92.7266 83.0278 90.7734C82.9809 88.8281 82.27 87.1562 80.895 85.7578C79.4262 84.375 77.7466 83.6836 75.8559 83.6836C73.9731 83.6836 72.3091 84.375 70.8637 85.7578C69.52 87.1562 68.8442 88.8281 68.8364 90.7734C68.8833 92.7266 69.5942 94.3984 70.9692 95.7891C72.438 97.1719 74.1177 97.8633 76.0083 97.8633ZM95.0269 99C93.9331 99 92.8823 98.793 91.8745 98.3789C90.8745 97.9648 89.98 97.3672 89.1909 96.5859C87.5972 94.9688 86.773 93.0312 86.7183 90.7734C86.7261 88.5156 87.5073 86.5781 89.062 84.9609C89.8433 84.1875 90.73 83.5938 91.7222 83.1797C92.7144 82.7656 93.7573 82.5586 94.8511 82.5586C95.9448 82.5586 96.9917 82.7656 97.9917 83.1797C98.9995 83.5938 99.898 84.1875 100.687 84.9609C102.281 86.5781 103.105 88.5156 103.16 90.7734C103.152 93.0312 102.371 94.9688 100.816 96.5859C100.035 97.3672 99.148 97.9648 98.1558 98.3789C97.1636 98.793 96.1206 99 95.0269 99ZM95.0152 97.8633C96.898 97.8633 98.562 97.1719 100.007 95.7891C101.351 94.3984 102.027 92.7266 102.035 90.7734C101.988 88.8281 101.277 87.1562 99.9019 85.7578C98.4331 84.375 96.7534 83.6836 94.8628 83.6836C92.98 83.6836 91.3159 84.375 89.8706 85.7578C88.5269 87.1562 87.8511 88.8281 87.8433 90.7734C87.8902 92.7266 88.6011 94.3984 89.9761 95.7891C91.4448 97.1719 93.1245 97.8633 95.0152 97.8633ZM109.206 99H105.889L105.725 82.5586H109.042C109.924 82.5586 110.706 82.8828 111.385 83.5312C112.034 84.1797 112.366 84.957 112.381 85.8633L112.487 95.6836C112.487 96.5898 112.17 97.3711 111.538 98.0273C110.866 98.6758 110.088 99 109.206 99ZM109.194 97.8633C109.78 97.8633 110.292 97.6484 110.729 97.2188C111.143 96.7969 111.354 96.2852 111.362 95.6836L111.256 85.8633C111.241 85.2695 111.022 84.7578 110.6 84.3281C110.147 83.8984 109.631 83.6836 109.053 83.6836H106.874L107.014 97.8633H109.194Z" fill="black" fill-opacity="0.8"></path></g></svg>